# xmcd
#
# Track frame offsets: 
#        150
#        14854
#        28180
#        40532
#        55443
#        67185
#        79732
#        93239
#        107739
#        120765
#        134847
#        148143
#        160714
#        174553
#        187601
#        200763
#        215086
#        244409
#        259968
#        272473
#        291244
#        306383
#
# Disc length: 4293 seconds
#
# Revision: 0
# Processed by: cddbd v1.5.2PL0 Copyright (c) Steve Scherf et al.
# Submitted via: ExactAudioCopy v0.95b4
#
DISCID=5310c316
DTITLE=FOUR TOPS - LEGENDS OF SOUL
DYEAR=2005
DGENRE=Soul
TTITLE0=REACH OUT
TTITLE1=BABY I NEED YOUR LOVING
TTITLE2=I CAN'T HELP MYSELF
TTITLE3=AIN'T NO WOMAN
TTITLE4=IT'S ALL IN THE GAME
TTITLE5=IT'S THE SAME OLD SONG
TTITLE6=JUST SEVEN NUMBERS
TTITLE7=BERNADETTE
TTITLE8=SHAKE ME WAKE ME
TTITLE9=YOU KEEP RUNNING AWAY
TTITLE10=SOMETHING ABOUT YOU
TTITLE11=JUST WALK AWAY RENEE
TTITLE12=KEEPER OF THE CASTLE
TTITLE13=IF I WERE A CARPENTER
TTITLE14=ASK THE LONELY
TTITLE15=STANDING IN THE SHADOWS OF LOVE
TTITLE16=MAC ARTHURS PARK
TTITLE17=STILL WATER
TTITLE18=SEVEN ROOMS OF GLOOM
TTITLE19=LOCO IN ACAPULCO
TTITLE20=WHEN SHE WAS MY GIRL
TTITLE21=ARE YOU MAN ENOUGH
EXTD=
EXTT0=
EXTT1=
EXTT2=
EXTT3=
EXTT4=
EXTT5=
EXTT6=
EXTT7=
EXTT8=
EXTT9=
EXTT10=
EXTT11=
EXTT12=
EXTT13=
EXTT14=
EXTT15=
EXTT16=
EXTT17=
EXTT18=
EXTT19=
EXTT20=
EXTT21=
PLAYORDER=
